# xmcd
#
# Track frame offsets: 
#        150
#        16749
#        35998
#
# Disc length: 757 seconds
#
# Revision: 0
# Processed by: cddbd v1.5.2PL0 Copyright (c) Steve Scherf et al.
# Submitted via: ExactAudioCopy v0.99pb4
#
DISCID=1d02f303
DTITLE=Revengine - promoCD08
DYEAR=2008
DGENRE=Hard Rock
TTITLE0=Come again
TTITLE1=I know
TTITLE2=From human to animal
EXTD=
EXTT0=
EXTT1=
EXTT2=
PLAYORDER=
